{
    "asset" : {
        "generator" : "Khronos glTF Blender I/O v3.3.32",
        "version" : "2.0"
    },
    "scene" : 0,
    "scenes" : [
        {
            "name" : "Scene",
            "nodes" : [
                0,
                1,
                2,
                3,
                4
            ]
        }
    ],
    "nodes" : [
        {
            "mesh" : 0,
            "name" : "Base",
            "scale" : [
                1.5220615863800049,
                0.18743878602981567,
                1.5220615863800049
            ]
        },
        {
            "mesh" : 1,
            "name" : "escudo.001",
            "rotation" : [
                0.7071068286895752,
                0,
                0,
                0.7071067094802856
            ],
            "scale" : [
                0.11828672140836716,
                0.22394131124019623,
                0.11828670650720596
            ],
            "translation" : [
                -0.12638096511363983,
                2.226973533630371,
                0
            ]
        },
        {
            "mesh" : 2,
            "name" : "Plane.001",
            "rotation" : [
                0.7071068286895752,
                0,
                0,
                0.7071067094802856
            ],
            "scale" : [
                0.051399897783994675,
                0.09104592353105545,
                0.05139989033341408
            ],
            "translation" : [
                -0.4740082025527954,
                1.5969942808151245,
                0
            ]
        },
        {
            "mesh" : 3,
            "name" : "Plane.002",
            "rotation" : [
                0.7071068286895752,
                0,
                0,
                0.7071067094802856
            ],
            "scale" : [
                0.15628162026405334,
                0.27682554721832275,
                0.15628159046173096
            ],
            "translation" : [
                -0.20899850130081177,
                1.538008689880371,
                0
            ]
        },
        {
            "mesh" : 4,
            "name" : "Plane.003",
            "rotation" : [
                0.7071068286895752,
                0,
                0,
                0.7071067094802856
            ],
            "scale" : [
                -0.07120994478464127,
                -0.1261359602212906,
                -0.32650259137153625
            ],
            "translation" : [
                0.34222301840782166,
                1.5615086555480957,
                0
            ]
        }
    ],
    "materials" : [
        {
            "doubleSided" : true,
            "name" : "base",
            "pbrMetallicRoughness" : {
                "baseColorTexture" : {
                    "index" : 0
                },
                "metallicRoughnessTexture" : {
                    "index" : 1
                },
                "roughnessFactor" : 0.5
            }
        },
        {
            "doubleSided" : true,
            "name" : "escudos.003",
            "pbrMetallicRoughness" : {
                "baseColorFactor" : [
                    0.4124102294445038,
                    0.4124102294445038,
                    0.4124102294445038,
                    1
                ],
                "metallicFactor" : 0,
                "roughnessFactor" : 0.5
            }
        },
        {
            "doubleSided" : true,
            "name" : "escudos.004",
            "pbrMetallicRoughness" : {
                "baseColorFactor" : [
                    0.4124102294445038,
                    0.4124102294445038,
                    0.4124102294445038,
                    1
                ],
                "metallicFactor" : 0,
                "roughnessFactor" : 0.5
            }
        }
    ],
    "meshes" : [
        {
            "name" : "Mesh.001",
            "primitives" : [
                {
                    "attributes" : {
                        "POSITION" : 0,
                        "NORMAL" : 1,
                        "TEXCOORD_0" : 2
                    },
                    "indices" : 3,
                    "material" : 0
                }
            ]
        },
        {
            "name" : "Mesh.047",
            "primitives" : [
                {
                    "attributes" : {
                        "POSITION" : 4,
                        "NORMAL" : 5,
                        "TEXCOORD_0" : 6
                    },
                    "indices" : 7,
                    "material" : 1
                }
            ]
        },
        {
            "name" : "Mesh.050",
            "primitives" : [
                {
                    "attributes" : {
                        "POSITION" : 8,
                        "NORMAL" : 9,
                        "TEXCOORD_0" : 10
                    },
                    "indices" : 11,
                    "material" : 2
                }
            ]
        },
        {
            "name" : "Mesh.051",
            "primitives" : [
                {
                    "attributes" : {
                        "POSITION" : 12,
                        "NORMAL" : 13,
                        "TEXCOORD_0" : 14
                    },
                    "indices" : 15,
                    "material" : 2
                }
            ]
        },
        {
            "name" : "Mesh.052",
            "primitives" : [
                {
                    "attributes" : {
                        "POSITION" : 16,
                        "NORMAL" : 17,
                        "TEXCOORD_0" : 18
                    },
                    "indices" : 19,
                    "material" : 2
                }
            ]
        }
    ],
    "textures" : [
        {
            "sampler" : 0,
            "source" : 0
        },
        {
            "sampler" : 0,
            "source" : 1
        }
    ],
    "images" : [
        {
            "mimeType" : "image/png",
            "name" : "Escudo_1_base_BaseColor",
            "uri" : "Escudo_1_base_BaseColor.png"
        },
        {
            "mimeType" : "image/png",
            "name" : "Escudo_1_base_Metallic",
            "uri" : "Escudo_1_base_Metallic.png"
        }
    ],
    "accessors" : [
        {
            "bufferView" : 0,
            "componentType" : 5126,
            "count" : 4254,
            "max" : [
                0.9553419947624207,
                2.617058753967285,
                0.9553419947624207
            ],
            "min" : [
                -0.9553419947624207,
                -1.0000003576278687,
                -0.9553418755531311
            ],
            "type" : "VEC3"
        },
        {
            "bufferView" : 1,
            "componentType" : 5126,
            "count" : 4254,
            "type" : "VEC3"
        },
        {
            "bufferView" : 2,
            "componentType" : 5126,
            "count" : 4254,
            "type" : "VEC2"
        },
        {
            "bufferView" : 3,
            "componentType" : 5123,
            "count" : 19008,
            "type" : "SCALAR"
        },
        {
            "bufferView" : 4,
            "componentType" : 5126,
            "count" : 7284,
            "max" : [
                8.076824188232422,
                2.013637640629895e-06,
                14.043208122253418
            ],
            "min" : [
                -5.939966678619385,
                -0.33013445138931274,
                -0.9804763793945312
            ],
            "type" : "VEC3"
        },
        {
            "bufferView" : 5,
            "componentType" : 5126,
            "count" : 7284,
            "type" : "VEC3"
        },
        {
            "bufferView" : 6,
            "componentType" : 5126,
            "count" : 7284,
            "type" : "VEC2"
        },
        {
            "bufferView" : 7,
            "componentType" : 5123,
            "count" : 23808,
            "type" : "SCALAR"
        },
        {
            "bufferView" : 8,
            "componentType" : 5126,
            "count" : 465,
            "max" : [
                1.0000001192092896,
                3.2833878549354267e-07,
                3.577728271484375
            ],
            "min" : [
                -1.0143203735351562,
                -0.7363950610160828,
                -1.7160365581512451
            ],
            "type" : "VEC3"
        },
        {
            "bufferView" : 9,
            "componentType" : 5126,
            "count" : 465,
            "type" : "VEC3"
        },
        {
            "bufferView" : 10,
            "componentType" : 5126,
            "count" : 465,
            "type" : "VEC2"
        },
        {
            "bufferView" : 11,
            "componentType" : 5123,
            "count" : 1584,
            "type" : "SCALAR"
        },
        {
            "bufferView" : 12,
            "componentType" : 5126,
            "count" : 4402,
            "max" : [
                2.6548988819122314,
                8.532338569011699e-08,
                2.197432041168213
            ],
            "min" : [
                -1.0020103454589844,
                -0.24219512939453125,
                -2.060076951980591
            ],
            "type" : "VEC3"
        },
        {
            "bufferView" : 13,
            "componentType" : 5126,
            "count" : 4402,
            "type" : "VEC3"
        },
        {
            "bufferView" : 14,
            "componentType" : 5126,
            "count" : 4402,
            "type" : "VEC2"
        },
        {
            "bufferView" : 15,
            "componentType" : 5123,
            "count" : 15360,
            "type" : "SCALAR"
        },
        {
            "bufferView" : 16,
            "componentType" : 5126,
            "count" : 779,
            "max" : [
                1.0000001192092896,
                0.531535804271698,
                1.1272430419921875
            ],
            "min" : [
                -1.0000001192092896,
                -2.9588210281872307e-07,
                -1.1369779109954834
            ],
            "type" : "VEC3"
        },
        {
            "bufferView" : 17,
            "componentType" : 5126,
            "count" : 779,
            "type" : "VEC3"
        },
        {
            "bufferView" : 18,
            "componentType" : 5126,
            "count" : 779,
            "type" : "VEC2"
        },
        {
            "bufferView" : 19,
            "componentType" : 5123,
            "count" : 2928,
            "type" : "SCALAR"
        }
    ],
    "bufferViews" : [
        {
            "buffer" : 0,
            "byteLength" : 51048,
            "byteOffset" : 0,
            "target" : 34962
        },
        {
            "buffer" : 0,
            "byteLength" : 51048,
            "byteOffset" : 51048,
            "target" : 34962
        },
        {
            "buffer" : 0,
            "byteLength" : 34032,
            "byteOffset" : 102096,
            "target" : 34962
        },
        {
            "buffer" : 0,
            "byteLength" : 38016,
            "byteOffset" : 136128,
            "target" : 34963
        },
        {
            "buffer" : 0,
            "byteLength" : 87408,
            "byteOffset" : 174144,
            "target" : 34962
        },
        {
            "buffer" : 0,
            "byteLength" : 87408,
            "byteOffset" : 261552,
            "target" : 34962
        },
        {
            "buffer" : 0,
            "byteLength" : 58272,
            "byteOffset" : 348960,
            "target" : 34962
        },
        {
            "buffer" : 0,
            "byteLength" : 47616,
            "byteOffset" : 407232,
            "target" : 34963
        },
        {
            "buffer" : 0,
            "byteLength" : 5580,
            "byteOffset" : 454848,
            "target" : 34962
        },
        {
            "buffer" : 0,
            "byteLength" : 5580,
            "byteOffset" : 460428,
            "target" : 34962
        },
        {
            "buffer" : 0,
            "byteLength" : 3720,
            "byteOffset" : 466008,
            "target" : 34962
        },
        {
            "buffer" : 0,
            "byteLength" : 3168,
            "byteOffset" : 469728,
            "target" : 34963
        },
        {
            "buffer" : 0,
            "byteLength" : 52824,
            "byteOffset" : 472896,
            "target" : 34962
        },
        {
            "buffer" : 0,
            "byteLength" : 52824,
            "byteOffset" : 525720,
            "target" : 34962
        },
        {
            "buffer" : 0,
            "byteLength" : 35216,
            "byteOffset" : 578544,
            "target" : 34962
        },
        {
            "buffer" : 0,
            "byteLength" : 30720,
            "byteOffset" : 613760,
            "target" : 34963
        },
        {
            "buffer" : 0,
            "byteLength" : 9348,
            "byteOffset" : 644480,
            "target" : 34962
        },
        {
            "buffer" : 0,
            "byteLength" : 9348,
            "byteOffset" : 653828,
            "target" : 34962
        },
        {
            "buffer" : 0,
            "byteLength" : 6232,
            "byteOffset" : 663176,
            "target" : 34962
        },
        {
            "buffer" : 0,
            "byteLength" : 5856,
            "byteOffset" : 669408,
            "target" : 34963
        }
    ],
    "samplers" : [
        {
            "magFilter" : 9729,
            "minFilter" : 9987
        }
    ],
    "buffers" : [
        {
            "byteLength" : 675264,
            "uri" : "Escudo_1.bin"
        }
    ]
}
