<?xml version="1.0" standalone="no"?>
<!DOCTYPE svg PUBLIC "-//W3C//DTD SVG 20010904//EN"
 "http://www.w3.org/TR/2001/REC-SVG-20010904/DTD/svg10.dtd">
<svg version="1.0" xmlns="http://www.w3.org/2000/svg"
 width="512.000000pt" height="512.000000pt" viewBox="0 0 512.000000 512.000000"
 preserveAspectRatio="xMidYMid meet">

<g transform="translate(0.000000,512.000000) scale(0.100000,-0.100000)"
fill="#000000" stroke="none">
<path d="M2400 4580 c-258 -22 -492 -86 -725 -200 -916 -445 -1357 -1494
-1035 -2462 320 -965 1324 -1546 2320 -1343 765 155 1376 739 1565 1495 79
318 79 667 0 980 -201 798 -856 1391 -1670 1514 -128 19 -334 26 -455 16z
m238 -1395 c46 -19 724 -692 753 -747 23 -45 25 -124 4 -176 -40 -95 -144
-146 -248 -122 -50 12 -64 24 -319 278 l-268 266 -267 -266 c-257 -255 -270
-266 -320 -278 -99 -23 -198 23 -243 111 -26 51 -27 137 -1 187 27 52 707 727
751 746 46 20 111 20 158 1z"/>
</g>
</svg>
