{
  "accessors": [
    {
      "bufferView": 2,
      "componentType": 5126,
      "count": 11653,
      "max": [
        89.81350708007813,
        89.81350708007813,
        17.191329956054688
      ],
      "min": [
        -89.81350708007813,
        -89.81350708007813,
        -0.6729214787483215
      ],
      "type": "VEC3"
    },
    {
      "bufferView": 2,
      "byteOffset": 139836,
      "componentType": 5126,
      "count": 11653,
      "max": [
        0.8972764611244202,
        0.9418820738792419,
        1.0
      ],
      "min": [
        -0.9606328010559082,
        -0.8579465746879578,
        0.2760588526725769
      ],
      "type": "VEC3"
    },
    {
      "bufferView": 3,
      "componentType": 5126,
      "count": 11653,
      "max": [
        1.0,
        0.5057333111763,
        0.9611033201217651,
        1.0
      ],
      "min": [
        -0.4817740023136139,
        -0.295853853225708,
        -0.9207555651664734,
        -1.0
      ],
      "type": "VEC4"
    },
    {
      "bufferView": 1,
      "componentType": 5126,
      "count": 11653,
      "max": [
        1.0,
        1.0
      ],
      "min": [
        -5.960464477539063e-08,
        -5.960464477539063e-08
      ],
      "type": "VEC2"
    },
    {
      "bufferView": 0,
      "componentType": 5125,
      "count": 69072,
      "type": "SCALAR"
    },
    {
      "bufferView": 2,
      "byteOffset": 279672,
      "componentType": 5126,
      "count": 748,
      "max": [
        89.81350708007813,
        89.81350708007813,
        0.018434759229421616
      ],
      "min": [
        -89.81350708007813,
        -89.81350708007813,
        -9.428262710571289
      ],
      "type": "VEC3"
    },
    {
      "bufferView": 2,
      "byteOffset": 288648,
      "componentType": 5126,
      "count": 748,
      "max": [
        1.0,
        1.0,
        1.8633284205957917e-13
      ],
      "min": [
        -1.0,
        -1.0,
        -1.0
      ],
      "type": "VEC3"
    },
    {
      "bufferView": 1,
      "byteOffset": 93224,
      "componentType": 5126,
      "count": 748,
      "max": [
        1.0,
        1.0
      ],
      "min": [
        0.0,
        0.0
      ],
      "type": "VEC2"
    },
    {
      "bufferView": 0,
      "byteOffset": 276288,
      "componentType": 5125,
      "count": 1686,
      "type": "SCALAR"
    }
  ],
  "asset": {
    "extras": {
      "author": "SebastianSosnowski (https://sketchfab.com/SebastianSosnowski)",
      "license": "CC-BY-4.0 (http://creativecommons.org/licenses/by/4.0/)",
      "source": "https://sketchfab.com/3d-models/ua-pou-marquesas-island-ab9e9f82d5774675950ef211ae63580c",
      "title": "Ua Pou - Marquesas Island"
    },
    "generator": "Sketchfab-12.67.0",
    "version": "2.0"
  },
  "bufferViews": [
    {
      "buffer": 0,
      "byteLength": 283032,
      "name": "floatBufferViews",
      "target": 34963
    },
    {
      "buffer": 0,
      "byteLength": 99208,
      "byteOffset": 283032,
      "byteStride": 8,
      "name": "floatBufferViews",
      "target": 34962
    },
    {
      "buffer": 0,
      "byteLength": 297624,
      "byteOffset": 382240,
      "byteStride": 12,
      "name": "floatBufferViews",
      "target": 34962
    },
    {
      "buffer": 0,
      "byteLength": 186448,
      "byteOffset": 679864,
      "byteStride": 16,
      "name": "floatBufferViews",
      "target": 34962
    }
  ],
  "buffers": [
    {
      "byteLength": 866312,
      "uri": "scene.bin"
    }
  ],
  "images": [
    {
      "uri": "textures/Material_74_baseColor.jpeg"
    },
    {
      "uri": "textures/Material_74_metallicRoughness.png"
    },
    {
      "uri": "textures/Material_74_normal.png"
    }
  ],
  "materials": [
    {
      "name": "Material_74",
      "normalTexture": {
        "index": 2
      },
      "pbrMetallicRoughness": {
        "baseColorFactor": [
          0.6602515244,
          0.6602515244,
          0.6602515244,
          1.0
        ],
        "baseColorTexture": {
          "index": 0
        },
        "metallicFactor": 0.0,
        "metallicRoughnessTexture": {
          "index": 1
        },
        "roughnessFactor": 0.4468368902
      }
    },
    {
      "doubleSided": true,
      "name": "Material_98",
      "pbrMetallicRoughness": {
        "baseColorFactor": [
          0.0,
          0.0,
          0.0,
          1.0
        ],
        "roughnessFactor": 0.8929713596
      }
    }
  ],
  "meshes": [
    {
      "name": "UaPouLP v2_Material #74_0",
      "primitives": [
        {
          "attributes": {
            "NORMAL": 1,
            "POSITION": 0,
            "TANGENT": 2,
            "TEXCOORD_0": 3
          },
          "indices": 4,
          "material": 0,
          "mode": 4
        }
      ]
    },
    {
      "name": "UaPouLP v2_Material #98_0",
      "primitives": [
        {
          "attributes": {
            "NORMAL": 6,
            "POSITION": 5,
            "TEXCOORD_0": 7
          },
          "indices": 8,
          "material": 1,
          "mode": 4
        }
      ]
    }
  ],
  "nodes": [
    {
      "children": [
        1
      ],
      "matrix": [
        0.01414305530488491,
        0.0,
        0.0,
        0.0,
        0.0,
        3.140389127606038e-18,
        -0.01414305530488491,
        0.0,
        0.0,
        0.01414305530488491,
        3.140389127606038e-18,
        0.0,
        0.0,
        0.0,
        0.0,
        1.0
      ],
      "name": "Sketchfab_model"
    },
    {
      "children": [
        2
      ],
      "matrix": [
        1.0,
        0.0,
        0.0,
        0.0,
        0.0,
        0.0,
        1.0,
        0.0,
        0.0,
        -1.0,
        0.0,
        0.0,
        0.0,
        0.0,
        0.0,
        1.0
      ],
      "name": "462b2022101e4d8e9c73bb49d5af4a4f.fbx"
    },
    {
      "children": [
        3
      ],
      "name": "RootNode"
    },
    {
      "children": [
        4,
        5
      ],
      "matrix": [
        1.0,
        0.0,
        0.0,
        0.0,
        0.0,
        2.220446049250313e-16,
        -1.0,
        0.0,
        0.0,
        1.0,
        2.220446049250313e-16,
        0.0,
        0.0,
        0.0,
        0.0,
        1.0
      ],
      "name": "UaPouLP v2"
    },
    {
      "mesh": 0,
      "name": "UaPouLP v2_Material #74_0"
    },
    {
      "mesh": 1,
      "name": "UaPouLP v2_Material #98_0"
    }
  ],
  "samplers": [
    {
      "magFilter": 9729,
      "minFilter": 9987,
      "wrapS": 10497,
      "wrapT": 10497
    }
  ],
  "scene": 0,
  "scenes": [
    {
      "name": "Sketchfab_Scene",
      "nodes": [
        0
      ]
    }
  ],
  "textures": [
    {
      "sampler": 0,
      "source": 0
    },
    {
      "sampler": 0,
      "source": 1
    },
    {
      "sampler": 0,
      "source": 2
    }
  ]
}
