<?xml version="1.0" standalone="no"?>
<!DOCTYPE svg PUBLIC "-//W3C//DTD SVG 20010904//EN"
 "http://www.w3.org/TR/2001/REC-SVG-20010904/DTD/svg10.dtd">
<svg version="1.0" xmlns="http://www.w3.org/2000/svg"
 width="512.000000pt" height="512.000000pt" viewBox="0 0 512.000000 512.000000"
 preserveAspectRatio="xMidYMid meet">

<g transform="translate(0.000000,512.000000) scale(0.100000,-0.100000)"
fill="#000000" stroke="none">
<path d="M0 2560 l0 -2560 2560 0 2560 0 0 2560 0 2560 -2560 0 -2560 0 0
-2560z m2822 2005 c544 -72 1035 -360 1362 -800 549 -738 526 -1771 -56 -2483
-600 -734 -1637 -955 -2478 -526 -397 202 -692 497 -894 894 -345 677 -274
1504 180 2115 325 437 815 726 1354 800 132 18 396 18 532 0z"/>
<path d="M2470 3184 c-43 -18 -701 -671 -735 -729 -34 -57 -40 -104 -21 -167
36 -123 176 -191 289 -140 24 11 134 113 298 277 l259 260 262 -262 c174 -173
276 -268 300 -278 113 -46 249 22 284 142 18 62 12 111 -21 168 -36 61 -692
711 -737 730 -47 19 -132 19 -178 -1z"/>
</g>
</svg>
